<svg width="111" height="27" viewBox="0 0 111 27" fill="none" xmlns="http://www.w3.org/2000/svg">
<path fill-rule="evenodd" clip-rule="evenodd" d="M43.355 19.109L41.8444 26.1323H38.3699L44.1103 0.679162H48.2262L53.6267 26.1323H50.1145L48.6416 19.109H43.355ZM48.2262 16.2766L47.0554 10.1956C46.7156 8.45835 46.3757 6.19364 46.1119 4.38024H45.9602C45.6965 6.23078 45.3176 8.57165 44.9789 10.1956L43.7704 16.2766H48.2262ZM66.8889 0V21.4121C66.8889 22.8101 66.9645 24.8495 67.0394 26.1329H63.981L63.7544 23.9053H63.6411C63.0368 25.1887 61.6395 26.4356 59.7895 26.4356C56.3906 26.4356 54.3135 22.7339 54.3135 17.0325C54.3135 10.5367 57.0698 7.47769 59.9784 7.47769C61.4506 7.47769 62.6214 8.15811 63.2634 9.55482H63.3389V0H66.8889ZM63.3383 14.7659C63.3383 14.4267 63.3383 14.0112 63.3005 13.6323C63.1117 11.9712 62.1676 10.5361 60.8841 10.5361C58.6553 10.5361 57.9006 13.6323 57.9006 17.0319C57.9006 20.8085 58.8825 23.4515 60.7708 23.4515C61.5639 23.4515 62.6207 23.0361 63.225 20.8463C63.3005 20.5441 63.3383 20.0903 63.3383 19.6761V14.7659ZM75.3448 26.435C71.6821 26.435 69.0378 23.3004 69.0378 16.9947C69.0378 10.3095 72.1718 7.47706 75.533 7.47706C79.1585 7.47706 81.7638 10.7249 81.7638 16.9186C81.7638 24.2074 78.176 26.435 75.3819 26.435H75.3448ZM75.4574 23.641C77.6473 23.641 78.1388 19.751 78.1388 16.957C78.1388 14.1994 77.6479 10.2724 75.3825 10.2724C73.0404 10.2724 72.5879 14.1994 72.5879 16.957C72.5879 20.0154 73.1166 23.641 75.4203 23.641H75.4574ZM83.9038 0H87.4532V9.85633H87.5288C88.4729 8.19525 89.7569 7.47706 91.3809 7.47706C94.5148 7.47706 96.4793 11.0271 96.4793 16.6542C96.4793 23.2249 93.7979 26.435 90.7766 26.435C88.9639 26.435 87.9442 25.4525 87.1505 23.8285H87.0007L86.8112 26.1323H83.7528C83.8283 24.8866 83.9038 22.8095 83.9038 21.4115V0ZM87.4532 19.6365C87.4532 20.0532 87.491 20.4686 87.6043 20.7701C88.1701 22.9989 89.266 23.4515 89.9829 23.4515C92.0978 23.4515 92.8909 20.6574 92.8909 16.8808C92.8909 13.3686 92.0607 10.5361 89.9452 10.5361C88.7744 10.5361 87.8303 11.9335 87.5659 13.2553C87.4904 13.6329 87.4526 14.1245 87.4526 14.5016V19.6365H87.4532ZM101.717 17.6733C101.755 22.394 103.794 23.5642 105.947 23.5642C107.231 23.5642 108.326 23.2627 109.119 22.8844L109.648 25.4525C108.553 26.019 106.891 26.3217 105.267 26.3217C100.66 26.3217 98.243 22.8472 98.243 17.1823C98.243 11.1775 100.999 7.47643 104.814 7.47643C108.628 7.47643 110.403 11.1397 110.403 15.7478C110.403 16.6536 110.365 17.2207 110.328 17.711L101.717 17.6733ZM107.042 15.1436C107.08 11.8957 105.947 10.1591 104.55 10.1591C102.699 10.1591 101.868 12.8405 101.755 15.1436H107.042Z" fill="black"/>
<path fill-rule="evenodd" clip-rule="evenodd" d="M18.3638 0.747152H28.9679V26.1323L18.3638 0.747152ZM10.8936 0.747152H0.281982V26.1323L10.8936 0.747152ZM14.6293 10.1024L21.3857 26.1323H16.9582L14.9377 21.0269H9.99228L14.6293 10.1024Z" fill="black"/>
<path fill-rule="evenodd" clip-rule="evenodd" d="M110.102 7.42986C110.208 7.43035 110.313 7.45191 110.411 7.49329C110.509 7.53467 110.598 7.59505 110.673 7.67095C110.747 7.74685 110.806 7.83677 110.846 7.93551C110.885 8.03425 110.905 8.13986 110.903 8.24624C110.903 8.70699 110.548 9.06639 110.098 9.06639C109.652 9.06639 109.288 8.70762 109.288 8.24624C109.288 8.13945 109.308 8.0336 109.349 7.93474C109.389 7.83588 109.449 7.74596 109.524 7.67013C109.599 7.5943 109.688 7.53404 109.787 7.49281C109.885 7.45159 109.991 7.43019 110.098 7.42986H110.102ZM110.098 7.55638C109.739 7.55638 109.444 7.86543 109.444 8.24624C109.444 8.6346 109.739 8.93925 110.102 8.93925C110.464 8.94303 110.754 8.6346 110.754 8.25002C110.754 7.86543 110.464 7.55638 110.102 7.55638H110.098ZM109.945 8.72209H109.801V7.81067C109.877 7.79997 109.95 7.78864 110.059 7.78864C110.197 7.78864 110.287 7.81822 110.341 7.85788C110.396 7.89753 110.425 7.95922 110.425 8.04671C110.425 8.1663 110.345 8.23932 110.247 8.26827V8.2752C110.327 8.28967 110.382 8.36268 110.399 8.49675C110.421 8.63838 110.443 8.69251 110.458 8.72209H110.305C110.283 8.69251 110.262 8.60942 110.244 8.48983C110.222 8.37338 110.164 8.32995 110.047 8.32995H109.946V8.72209H109.945ZM109.945 8.21729H110.051C110.17 8.21729 110.273 8.17385 110.273 8.06118C110.273 7.98125 110.214 7.90131 110.051 7.90131C110.004 7.90131 109.971 7.90509 109.945 7.90886V8.21729ZM30.366 0.747152C30.4724 0.747642 30.5776 0.769196 30.6756 0.810575C30.7736 0.851954 30.8625 0.912337 30.937 0.988238C31.0116 1.06414 31.0704 1.15406 31.11 1.2528C31.1496 1.35154 31.1693 1.45714 31.1679 1.56353C31.1679 2.02427 30.8122 2.38368 30.3622 2.38368C29.9159 2.38368 29.5527 2.0249 29.5527 1.56353C29.5522 1.45674 29.5727 1.35089 29.613 1.25203C29.6534 1.15317 29.7129 1.06325 29.7881 0.987416C29.8633 0.911584 29.9527 0.851328 30.0512 0.8101C30.1497 0.768871 30.2554 0.747482 30.3622 0.747152H30.366ZM30.3622 0.873667C30.0028 0.873667 29.7088 1.18272 29.7088 1.56353C29.7088 1.95189 30.0028 2.25653 30.366 2.25653C30.7285 2.26031 31.0193 1.95189 31.0193 1.56731C31.0193 1.18272 30.7285 0.873667 30.366 0.873667H30.3622ZM30.2099 2.03938H30.0645V1.12796C30.1498 1.1138 30.2361 1.10665 30.3225 1.10656C30.4604 1.10656 30.551 1.13488 30.6052 1.17517C30.6599 1.21482 30.6889 1.27713 30.6889 1.364C30.6889 1.48359 30.6089 1.55661 30.5107 1.58556V1.59248C30.5907 1.60696 30.6454 1.67997 30.6637 1.81467C30.6851 1.9563 30.7071 2.01043 30.7216 2.04001H30.5693C30.5473 2.01043 30.5252 1.92734 30.5076 1.80775C30.4856 1.6913 30.4277 1.64787 30.3112 1.64787H30.2099V2.03938ZM30.2099 1.53458H30.315C30.4346 1.53458 30.5366 1.49114 30.5366 1.37847C30.5366 1.29854 30.4786 1.2186 30.315 1.2186C30.2678 1.2186 30.2351 1.22238 30.2099 1.22615V1.53458Z" fill="black"/>
</svg>
