<svg width="82" height="27" viewBox="0 0 82 27" fill="none" xmlns="http://www.w3.org/2000/svg">
<path d="M10.5869 0.567184H11.3071C13.8076 0.621541 16.2672 1.62714 18.0338 3.40732C17.3815 4.07319 16.7156 4.71188 16.077 5.37775C15.0849 4.48087 13.8891 3.78782 12.5845 3.54321C10.6549 3.13554 8.57572 3.50245 6.95861 4.60317C5.19201 5.75825 3.99616 7.71509 3.73797 9.80782C3.4526 11.8734 4.03693 14.0476 5.38226 15.6512C6.67323 17.2139 8.64367 18.1923 10.682 18.2603C12.5845 18.369 14.5686 17.7847 15.9547 16.4529C17.0418 15.5153 17.5446 14.0884 17.7077 12.7023C15.4519 12.7023 13.196 12.7159 10.9402 12.7023V9.90295H20.4391C20.9283 12.9062 20.2217 16.2899 17.9387 18.4369C16.4167 19.9589 14.3104 20.8558 12.1633 21.0325C10.0841 21.2363 7.93703 20.8422 6.0889 19.8366C3.87386 18.6544 2.10727 16.6568 1.23756 14.3058C0.422207 12.1452 0.408618 9.69911 1.16961 7.52484C1.86266 5.54082 3.1944 3.78782 4.90664 2.56479C6.55093 1.35536 8.54854 0.689487 10.5869 0.567184Z" fill="black"/>
<path d="M65.0796 1.27329H67.9876V20.6786C67.0228 20.6786 66.0444 20.6922 65.0796 20.6651C65.0932 14.2102 65.0796 7.74174 65.0796 1.27329Z" fill="black"/>
<path d="M26.9076 7.99996C28.7014 7.66023 30.6446 8.04073 32.1258 9.11428C33.4712 10.0655 34.4088 11.5603 34.6942 13.191C35.0611 15.0799 34.5991 17.1455 33.3761 18.6403C32.0579 20.3118 29.8972 21.2086 27.7909 21.0727C25.8612 20.964 23.9859 19.9992 22.8444 18.4229C21.5535 16.6834 21.2409 14.2917 21.9475 12.2534C22.6542 10.0655 24.6518 8.39405 26.9076 7.99996ZM27.3153 10.5819C26.5815 10.7722 25.902 11.1934 25.4128 11.7913C24.0946 13.3677 24.1762 15.936 25.6302 17.4037C26.4592 18.2462 27.7094 18.6403 28.8644 18.4093C29.938 18.219 30.8756 17.4988 31.392 16.5476C32.2889 14.9304 32.0307 12.7018 30.6582 11.438C29.7749 10.6227 28.4839 10.2829 27.3153 10.5819Z" fill="black"/>
<path d="M41.3123 7.99995C43.3642 7.60586 45.6064 8.17661 47.142 9.61706C49.6424 11.8593 49.9142 16.0583 47.7807 18.6403C46.4897 20.271 44.397 21.1679 42.3314 21.0727C40.361 21.0184 38.4178 20.04 37.2491 18.4229C35.9309 16.6427 35.6456 14.1966 36.393 12.1175C37.1404 9.99756 39.0972 8.38045 41.3123 7.99995ZM41.7199 10.5819C40.9861 10.7721 40.3067 11.1934 39.8174 11.7777C38.5129 13.3269 38.5672 15.8545 39.9669 17.3357C40.7959 18.219 42.0868 18.6539 43.2827 18.4093C44.3426 18.2054 45.2939 17.4988 45.8103 16.5475C46.6936 14.9168 46.4354 12.6882 45.0493 11.4244C44.166 10.6091 42.875 10.2829 41.7199 10.5819Z" fill="black"/>
<path d="M53.5289 8.78812C55.0916 7.8097 57.1708 7.53791 58.8559 8.38044C59.3858 8.61146 59.8207 9.00554 60.2419 9.39963C60.2555 9.03272 60.2419 8.65223 60.2555 8.27173C61.166 8.28532 62.0765 8.27173 63.0006 8.28532V20.271C62.987 22.0783 62.5249 23.9944 61.2204 25.3126C59.7935 26.7666 57.6056 27.2151 55.6352 26.9161C53.5289 26.6035 51.6943 25.068 50.879 23.1247C51.6943 22.7306 52.5505 22.4181 53.393 22.0512C53.8686 23.1655 54.8335 24.1167 56.0429 24.3341C57.2523 24.5516 58.652 24.2526 59.4402 23.247C60.2827 22.2142 60.2827 20.801 60.2419 19.5372C59.6168 20.1487 58.8966 20.6922 58.0269 20.8961C56.138 21.4261 54.0589 20.7738 52.6048 19.4964C51.1372 18.219 50.2675 16.2486 50.349 14.2917C50.3898 12.0767 51.64 9.9432 53.5289 8.78812ZM56.3419 10.5275C55.5129 10.6634 54.7383 11.1255 54.2083 11.7641C52.931 13.2861 52.931 15.7186 54.2219 17.2134C54.9558 18.0967 56.138 18.5859 57.2795 18.4636C58.3531 18.3549 59.3451 17.6754 59.875 16.7378C60.7719 15.1479 60.6224 12.9872 59.413 11.6011C58.6656 10.745 57.4698 10.3237 56.3419 10.5275Z" fill="black"/>
<path d="M71.4798 9.48119C73.1105 7.9592 75.6246 7.44281 77.7173 8.24457C79.7013 8.99198 80.9651 10.8809 81.6038 12.8241C78.655 14.0472 75.7197 15.2566 72.7708 16.4796C73.1785 17.2542 73.8036 17.9609 74.6461 18.2462C75.8284 18.6675 77.2417 18.518 78.2337 17.7298C78.6278 17.4309 78.9403 17.0368 79.2393 16.6563C79.9867 17.1591 80.7341 17.6483 81.4815 18.1511C80.4216 19.741 78.6414 20.8554 76.7253 21.032C74.6054 21.2902 72.3495 20.4749 70.977 18.817C68.7212 16.2078 68.9387 11.8321 71.4798 9.48119ZM72.9339 11.9952C72.4719 12.6611 72.2816 13.4764 72.2952 14.2782C74.2656 13.4628 76.2361 12.6475 78.2065 11.8185C77.8804 11.0575 77.0922 10.5955 76.2904 10.4732C74.9995 10.2422 73.6541 10.9352 72.9339 11.9952Z" fill="black"/>
</svg>
