<svg width="105" height="27" viewBox="0 0 105 27" fill="none" xmlns="http://www.w3.org/2000/svg">
<path fill-rule="evenodd" clip-rule="evenodd" d="M33.4229 21.3793L34.7267 18.3497C36.1349 19.4027 38.0113 19.9502 39.8625 19.9502C41.229 19.9502 42.094 19.4236 42.094 18.6255C42.0731 16.3939 33.9076 18.1407 33.8449 12.5452C33.824 9.70354 36.3481 7.5138 39.9252 7.5138C42.0523 7.5138 44.1751 8.04034 45.6921 9.23968L44.4718 12.3321C43.0844 11.4461 41.3586 10.8151 39.7163 10.8151C38.6005 10.8151 37.865 11.3417 37.865 12.0145C37.8859 14.2042 46.1141 13.0049 46.1977 18.3497C46.1977 21.254 43.7363 23.2975 40.201 23.2975C37.6101 23.2933 35.2323 22.6832 33.4229 21.3793ZM83.4901 17.2548C82.8382 18.3914 81.618 19.1687 80.2055 19.1687C78.1202 19.1687 76.4403 17.4846 76.4403 15.4035C76.4403 13.3225 78.1244 11.6384 80.2055 11.6384C81.6138 11.6384 82.8382 12.4156 83.4901 13.5523L87.0881 11.5548C85.7425 9.15611 83.1516 7.5138 80.2055 7.5138C75.8469 7.5138 72.3116 11.0491 72.3116 15.4077C72.3116 19.7663 75.8469 23.3016 80.2055 23.3016C83.1725 23.3016 85.7425 21.6802 87.0881 19.2607L83.4901 17.2548ZM48.0072 0.965492H52.512V23.0008H48.0072V0.965492ZM88.8558 0.965492V23.0008H93.3606V16.3898L98.7054 23.0008H104.472L97.6732 15.1486L103.967 7.82304H98.4505L93.3564 13.9033V0.965492H88.8558Z" fill="black"/>
<path d="M65.8967 17.2966C65.2448 18.3705 63.8992 19.1687 62.3822 19.1687C60.297 19.1687 58.617 17.4846 58.617 15.4035C58.617 13.3225 60.3011 11.6384 62.3822 11.6384C63.8992 11.6384 65.2448 12.4783 65.8967 13.5732V17.2966ZM65.8967 7.82722V9.61578C65.1612 8.37465 63.3308 7.50962 61.4127 7.50962C57.4553 7.50962 54.342 11.0032 54.342 15.3826C54.342 19.7621 57.4553 23.2975 61.4127 23.2975C63.3267 23.2975 65.157 22.4366 65.8967 21.1913V22.9799H70.4015V7.82722H65.8967Z" fill="black"/>
<path fill-rule="evenodd" clip-rule="evenodd" d="M5.57892 17.2757C5.57892 18.8135 4.33779 20.0547 2.79996 20.0547C1.26213 20.0547 0.0209961 18.8093 0.0209961 17.2757C0.0209961 15.742 1.26213 14.4967 2.79996 14.4967H5.57892V17.2757ZM6.96631 17.2757C6.96631 15.7379 8.20744 14.4967 9.74527 14.4967C11.2831 14.4967 12.5242 15.7379 12.5242 17.2757V24.221C12.5242 25.7588 11.2831 27 9.74527 27C8.20744 27 6.96631 25.7588 6.96631 24.221V17.2757Z" fill="black"/>
<path fill-rule="evenodd" clip-rule="evenodd" d="M9.74517 6.12225C8.20734 6.12225 6.96621 4.88112 6.96621 3.34329C6.96621 1.80546 8.20734 0.564331 9.74517 0.564331C11.283 0.564331 12.5241 1.80546 12.5241 3.34329V6.12225H9.74517ZM9.74517 7.53054C11.283 7.53054 12.5241 8.77167 12.5241 10.3095C12.5241 11.8473 11.283 13.0885 9.74517 13.0885H2.77896C1.24113 13.0885 0 11.8431 0 10.3095C0 8.77584 1.24113 7.53054 2.77896 7.53054H9.74517Z" fill="black"/>
<path fill-rule="evenodd" clip-rule="evenodd" d="M20.8777 10.3095C20.8777 8.77166 22.1188 7.53053 23.6566 7.53053C25.1945 7.53053 26.4356 8.77166 26.4356 10.3095C26.4356 11.8473 25.1945 13.0885 23.6566 13.0885H20.8777V10.3095ZM19.4903 10.3095C19.4903 11.8473 18.2492 13.0885 16.7113 13.0885C15.1735 13.0885 13.9324 11.8473 13.9324 10.3095V3.34328C13.9324 1.80545 15.1735 0.564323 16.7113 0.564323C18.2492 0.564323 19.4903 1.80545 19.4903 3.34328V10.3095Z" fill="black"/>
<path fill-rule="evenodd" clip-rule="evenodd" d="M16.7113 21.442C18.2492 21.442 19.4903 22.6832 19.4903 24.221C19.4903 25.7588 18.2492 27 16.7113 27C15.1735 27 13.9324 25.7588 13.9324 24.221V21.442H16.7113ZM16.7113 20.0547C15.1735 20.0547 13.9324 18.8135 13.9324 17.2757C13.9324 15.7379 15.1735 14.4967 16.7113 14.4967H23.6775C25.2154 14.4967 26.4565 15.7379 26.4565 17.2757C26.4565 18.8135 25.2154 20.0547 23.6775 20.0547H16.7113Z" fill="black"/>
</svg>
